<?xml version="1.0" encoding="UTF-8" standalone="no"?>
<!-- Created with Sodipodi ("http://www.sodipodi.com/") -->
<svg xmlns:inkscape="http://www.inkscape.org/namespaces/inkscape" xmlns:rdf="http://www.w3.org/1999/02/22-rdf-syntax-ns#" xmlns="http://www.w3.org/2000/svg" xmlns:cc="http://creativecommons.org/ns#" xmlns:dc="http://purl.org/dc/elements/1.1/" xmlns:sodipodi="http://sodipodi.sourceforge.net/DTD/sodipodi-0.dtd" xmlns:svg="http://www.w3.org/2000/svg" xmlns:ns1="http://sozi.baierouge.fr" id="svg1350" inkscape:version="0.48.3.1 r9886" viewBox="0 0 340.3 214.73" sodipodi:version="0.34" version="1.1" sodipodi:docname="_svgclean2.svg" xmlns:xlink="http://www.w3.org/1999/xlink">
  <sodipodi:namedview id="base" bordercolor="#000000" inkscape:window-x="0" inkscape:window-width="674" inkscape:window-height="645" inkscape:window-maximized="0" inkscape:zoom="0.22425739" showgrid="false" borderopacity="1" inkscape:current-layer="svg1350" inkscape:cx="371.60615" inkscape:cy="-310.15195" inkscape:window-y="0" borderlayer="top"/>
  <path id="path632" inkscape:connector-curvature="0" sodipodi:nodetypes="cccsccccc" style="fill-rule:evenodd;stroke:#000000;stroke-width:1.05;fill:#00d700" d="m102.05 174.32c2.81-5.51 5.48-7.34 6.46-10.88 0.98-3.53 3.23-5.79 7.17-9.04 7.02-6.22 14.42-9.6 21.49-4.38 4.03 2.98 1.27 9.75 6.19 12.15 4.91 2.4 8.01 13 7.44 16.82-6.32-5.23-12.5-7.07-18.68-2.55-4.78 3.25-9.84 4.38-15.18 0.57-5.34-3.82-15.03-2.69-14.89-2.69z"/>
  <path id="path619" inkscape:connector-curvature="0" sodipodi:nodetypes="cccccscc" style="fill-rule:evenodd;stroke:#000000;stroke-width:1.05;fill:#ff0000" d="m185.09 66.37c-1.69 10.598 2.24 20.065 6.88 18.37 0.84 3.815 4.36 6.924 7.17 6.641-0.42 3.957 4.49 12.152 8.57 11.732 2.11 5.65 5.62 14.13 10.96 9.46 1.54 6.5 4.92 13.85 10.11 12.3 2.39-0.71-1.68-85.493-1.26-84.08l-42.43 25.577z"/>
  <path id="path1831" inkscape:connector-curvature="0" sodipodi:nodetypes="ccsccccccccccccscccccscsscccccccccccccccccccssscccscsscccccccccccccccccccccccccccccc" style="fill-rule:evenodd;stroke:#000000;stroke-width:1.05;fill:#ff0000" d="m208.72 119.57c-8.89-2.63-9.16-6.29-11.41-10.81s-2.31-10.941-8.99-14.132c-5.3-2.53-5.79-6.018-6.35-9.409s2.98-18.287 2.98-18.287-1.68 0.166-2.15-0.565c2.32-0.331 8.13 2.232 10.01-0.565 1.29 1.598 3.18 1.764 4.5 0.565 1.12 1.998 6.05 1.764 6.74-0.565 2.68 1.467 7.58-1.262 6.75-3.392 3.94 1.068 7.01-2.192 6.18-5.087 5.53-0.097 5.59-4.487 3.37-6.782 2.16-0.297 3.42-2.627 1.69-4.522 2.25-1.696 3.93 1.695 3.93 4.522 0 2.826 2.48 53.329 2.48 58.419s1.53 13.98 3.14 17.35c3.35 7.01 5.99 8.02 10.22 7.68-3.31-5.72-3.44-11.7-4-16.22s-2.88-65.186-3.2-65.174l-0.01-0.011c2.13 0.576 3.67-0.003 4.81-0.85-2.04-0.147-2.88-2.25-3.29-2.911-0.9-1.806-1.72-6.762-2.84-9.588s-8.5-15.506-12.36-18.087c-4.5-2.381-11.69-5.256-13.49-1.696-2.63 4.514 2.25 13.566 5.06 14.131s-3.38-2.261-2.81 1.13c0.56 3.392 2.24 7.348 0.56 9.609-1.69 2.261-3.94 3.391-6.19 3.391-2.24 0-3.37 0-4.49 1.696-1.13 1.696-3.94 2.826-6.18 1.131-2.25-1.696-5.62-2.261-7.31-2.261s-5.59 0.668-5.78 0.068l0.13-7.079c1.42 0.985 6.87-0.175 9.07-2.744-3.58-0.237-5.68-5.603-5.61-7.797 1.9 0.314 3.89-0.897 5.54-2.093-2.47-0.077-5.5-3.275-6.34-7.029 2.12 0.131 2.67-1.198 4.24-2.33-2.59 0.164-7.24-3.385-8.43-6.608-1.68-1.696-13.05-2.059-16.43-2.059-3.37 0-2.81 0.931-2.81 2.627 0 1.695 1.13 0.565-2.81 2.826-5.82 1.561-6.28 7.842-3.27 10.108 1.13-1.13 1.45-2.196 2.38-3.323 0.79-0.845 2.55-0.448 3.23 0.488 0.58 0.692 1.95 1.722 2.94 1.747 1.02-0.077 1.98-0.724 3.32 0.258 6.16 2.829 2.42 10.901-5.22 10.505 1.49 3.4 4.14 4.497 8.91 2.767-0.66 1.933-2.71 5.169-3.93 6.214-8.43 4.77-14.11 14.94-10.47 29.089 2.25 3.956 6.96 15.847-0.7 19.583-7.83 3.328-8.33 7.942-10.31 12.872-2.29 5.16-8.12 13.68-12.69 13.04 3.43 5.83 16.49-3 18.51-6.69 1.82 4.09 1.74 10.23 6.87 11.47-3.06-7.51-0.49-11.03 6.1-16.34 3.47 4.59-3.55 25.77-12.19 27.91 3.98 1.96 9.85-1.1 12-1.6-0.84 1.9-10.42 7.84-14.99 7.9 6.57 5.47 14.52-2.67 18-6.22-0.5 3.83-10.02 12.98-14.36 13.82 0.22 6.83 36.39 8.19 37.66 0.57-4.5-1.23-11.62-7.37-13.8-13.78 5.69 5.74 10.42 9.93 18.03 6.01-7.58-1.93-11.88-5.56-13.53-7.7 3.78 1.11 5.59 1.73 10.09 1.16-6.24-3.16-14.34-20.81-12.77-28.6 7.8 5.28 8.68 9.69 6.48 16.83 6.64 0.17 6.14-9.87 7.44-13.13 4.07 7.53 11.42 13.67 18.15 8.55z"/>
  <path id="path1832" inkscape:connector-curvature="0" sodipodi:nodetypes="cccscc" style="fill-rule:evenodd;stroke:#000000;stroke-width:1.05;fill:#ff0000" d="m167.55 27.776c-4.37-0.399-8.74 0.2-11.13 1.399-2.38 1.199-7.45 1.699-10.83 0.5 2.19 3.797 6.56 4.796 11.53 2.598 2.73-1.263 6.65-2.698 8.34-2.298 4.47 0.899 2.78-1.999 2.09-2.199z"/>
  <path id="path611" inkscape:connector-curvature="0" sodipodi:nodetypes="cccccccc" style="fill-rule:evenodd;stroke:#000000;stroke-width:1.05;fill:#ff0000" d="m153.47 67.076c2.39 7.066 1.13 17.24-5.48 17.946-1.26 3.109-4.07 5.229-7.44 6.218-1.41 6.358-5.06 12.573-8.29 10.743-1.55 6.5-7.87 16.25-10.82 9.89-1.41 8.9-9.14 15.12-12.23 11.44-2.53-2.96 3.09-76.302 3.09-76.302l41.17 20.065z"/>
  <path id="path610" inkscape:connector-curvature="0" sodipodi:nodetypes="ccccsscscccccccccccscc" style="fill-rule:evenodd;stroke:#000000;stroke-width:1.05;fill:#ff0000" d="m160.29 48.243c-5.16-0.8-10.71 0.282-12.69 1.881-1.99 1.599-6.88 2.233-8.07 0.634s-2.78-2.398-4.77-2.798c-7.6-2.095-6.73-14.627-3.57-15.987 5.12-1.974 6.76-12.046-0.43-12.083-7.55-0.18-12.99 0.517-16.17 3.714-3.18 3.198-6.7 8.552-7.65 14.764-0.83 5.459-3.7 12.41-7.523 15.519 2.203 0.82 3.913 0.295 4.633 0.165-1.48 3.472-0.02 67.771-5.849 77.841-1.193 4 7.149 3.2 9.939-3.2 2.78-6.39 6.35-77.136 6.75-80.733s1.64 1.062 3.58 2.495c-1.01 4.401 0.79 7.081 3.58 7.667-0.17 3.835 3.95 4.513 5.96 3.827-0.24 2.563 2.64 3.601 5.56 2.797 1.52 3.012 6.13 3.529 7.32 1.74 2.03 2.451 4.56 0.59 5.4-0.94 2.1 2.144 7.41 3.832 7.2 0.42-0.68-4.957 3.27-15.462 6.8-17.723z"/>
  <path id="path612" inkscape:connector-curvature="0" sodipodi:nodetypes="cc" style="fill-rule:evenodd;stroke:#000000;stroke-width:1.05;fill:#ff0000" d="m123.12 61.424c0.14 8.478-0.14 48.049-1.96 51.439"/>
  <path id="path616" inkscape:connector-curvature="0" sodipodi:nodetypes="cc" style="fill-rule:evenodd;stroke:#000000;stroke-width:1.05;fill:#ff0000" d="m132.26 101.98c1.12-6.645 0.28-37.309 0.28-37.309"/>
  <path id="path617" inkscape:connector-curvature="0" sodipodi:nodetypes="cc" style="fill-rule:evenodd;stroke:#000000;stroke-width:1.05;fill:#ff0000" d="m140.69 91.381c0.56-5.652 0.42-24.729 0.42-24.729"/>
  <path id="path618" inkscape:connector-curvature="0" sodipodi:nodetypes="cc" style="fill-rule:evenodd;stroke:#000000;stroke-width:1.05;fill:#ff0000" d="m148.13 84.881c0.42-5.228-0.42-18.087-0.42-18.087"/>
  <path id="path620" inkscape:connector-curvature="0" sodipodi:nodetypes="cc" style="fill-rule:evenodd;stroke:#000000;stroke-width:1.05;fill:#ff0000" d="m191.83 84.74c-1.69-4.381 0-18.229 0-18.229"/>
  <path id="path621" inkscape:connector-curvature="0" sodipodi:nodetypes="cc" style="fill-rule:evenodd;stroke:#000000;stroke-width:1.05;fill:#ff0000" d="m199.14 91.381c-1.97-4.381-0.56-24.022-0.56-24.022"/>
  <path id="path622" inkscape:connector-curvature="0" sodipodi:nodetypes="cc" style="fill-rule:evenodd;stroke:#000000;stroke-width:1.05;fill:#ff0000" d="m207.71 103.11c-1.97-6.786 0-37.308 0-37.308"/>
  <path id="path623" inkscape:connector-curvature="0" sodipodi:nodetypes="cc" style="fill-rule:evenodd;stroke:#000000;stroke-width:1.05;fill:#ff0000" d="m218.67 112.15c-2.25-6.92-2.07-52.273-2.07-52.273"/>
  <path id="path629" style="stroke:#000000;stroke-width:1.05;fill:none" inkscape:connector-curvature="0" d="m122.7 152.14c0 1.82-1.21 3.61-2.26 4.99-0.17 0.22 0.5-0.25 0.76-0.35 1.15-0.47 2.32-0.84 3.44-1.48 0.47-0.27 0.65-0.18 0.9-0.66"/>
  <path id="path630" style="fill-rule:evenodd;stroke:#000000;stroke-width:1.05;fill:#ff0000" inkscape:connector-curvature="0" d="m134.36 157.37c1.76 0.44 3.46 1.7 4.38 3.28"/>
  <path id="path849" inkscape:connector-curvature="0" sodipodi:nodetypes="cc" style="fill-rule:evenodd;stroke:#000000;stroke-width:1.05;fill:#ff0000" d="m117.66 89.944c0.69-9.756 0.55-29.93-0.02-32.616"/>
  <path id="path850" inkscape:connector-curvature="0" sodipodi:nodetypes="cc" style="fill-rule:evenodd;stroke:#000000;stroke-width:1.05;fill:#ff0000" d="m221.47 55.272c-0.18 8.536-1.09 29.271 1.16 35.891"/>
  <path id="path851" inkscape:connector-curvature="0" sodipodi:nodetypes="ccsccccsccccc" style="fill-rule:evenodd;stroke:#000000;stroke-width:1.05;fill:#ff0000" d="m198.72 120.43c4.85 7.49 7.45 13.41 8.84 17.42 1.38 4 4.5 6.09 9.01 7.31 3.92 0.92 6.17 4.28 4.9 7-9.33-6.42-20.08-5.4-23.09 0.67-1.91-3.66 0.69-5.4 2.94-6.79 2.25-1.4 4.68-2.27 2.25-6.1-2.42-3.83-11.77-15.23-14.03-18.2-1.3-1.48 0.16-6.67 0.85-9.45 2.27 3.45 8.33 8.31 8.33 8.14z"/>
  <path id="path852" inkscape:connector-curvature="0" sodipodi:nodetypes="cccccscccccc" style="fill-rule:evenodd;stroke:#000000;stroke-width:1.05;fill:#ff0000" d="m151.09 121.65c-6.06 5.57-13.34 16.02-14.38 18.11s-1.21 3.84 0.69 5.4c1.91 1.57 5.46 5.24 4.08 7.5-8.62-7.58-14.3-6.62-22.78-0.7-1.74-2.44-0.35-5.58 2.94-6.97 3.27-1.15 6.06-0.35 8.83-4.18 2.78-3.83 8.32-18.64 10.22-20.73 2.95-1.57 6.41-4.88 8.67-5.75 1.21 2.09 2.07 7.32 1.73 7.14v0.18z"/>
  <path id="path853" inkscape:connector-curvature="0" sodipodi:nodetypes="ccccccc" style="fill-rule:evenodd;stroke:#000000;stroke-width:1.05;fill:#ff0000" d="m160.72 10.569c-2.16-0.9-2.99-2.6557-1.99-3.909 5.32-1.5083 17.99-2.0776 21.11 0.8839 2.93 1.3051 1.11 3.3951-1.06 4.6271-4.33-1.22-16.09-1.84-16.61-1.666l-1.45 0.064z"/>
  <path id="path854" sodipodi:rx="2.2334518" sodipodi:ry="2.2334576" style="fill-rule:evenodd;stroke:#000000;stroke-width:.625;fill:#ff0000" sodipodi:type="arc" d="m152.7 15.379a2.2335 2.2335 0 1 1 -4.4669 0 2.2335 2.2335 0 1 1 4.4669 0z" transform="matrix(.94232 0 0 .94768 15.672 -10.124)" sodipodi:cy="15.378851" sodipodi:cx="150.46875"/>
  <path id="path855" sodipodi:rx="2.2334518" sodipodi:ry="2.2334576" style="fill-rule:evenodd;stroke:#000000;stroke-width:.625;fill:#ff0000" sodipodi:type="arc" d="m152.7 15.379a2.2335 2.2335 0 1 1 -4.4669 0 2.2335 2.2335 0 1 1 4.4669 0z" transform="matrix(.94232 0 0 .94768 40.932 -8.3241)" sodipodi:cy="15.378851" sodipodi:cx="150.46875"/>
  <path id="path856" sodipodi:rx="2.2334518" sodipodi:ry="2.2334576" style="fill-rule:evenodd;stroke:#000000;stroke-width:.625;fill:#ff0000" sodipodi:type="arc" d="m152.7 15.379a2.2335 2.2335 0 1 1 -4.4669 0 2.2335 2.2335 0 1 1 4.4669 0z" transform="matrix(.94232 0 0 .94768 37 -10.537)" sodipodi:cy="15.378851" sodipodi:cx="150.46875"/>
  <path id="path857" sodipodi:rx="2.2334518" sodipodi:ry="2.2334576" style="fill-rule:evenodd;stroke:#000000;stroke-width:.625;fill:#ff0000" sodipodi:type="arc" d="m152.7 15.379a2.2335 2.2335 0 1 1 -4.4669 0 2.2335 2.2335 0 1 1 4.4669 0z" transform="matrix(.94232 0 0 .94768 32.895 -11.791)" sodipodi:cy="15.378851" sodipodi:cx="150.46875"/>
  <path id="path858" sodipodi:rx="2.2334518" sodipodi:ry="2.2334576" style="fill-rule:evenodd;stroke:#000000;stroke-width:.625;fill:#ff0000" sodipodi:type="arc" d="m152.7 15.379a2.2335 2.2335 0 1 1 -4.4669 0 2.2335 2.2335 0 1 1 4.4669 0z" transform="matrix(.94232 0 0 .94768 28.595 -12.162)" sodipodi:cy="15.378851" sodipodi:cx="150.46875"/>
  <path id="path859" sodipodi:rx="2.2334518" sodipodi:ry="2.2334576" style="fill-rule:evenodd;stroke:#000000;stroke-width:.625;fill:#ff0000" sodipodi:type="arc" d="m152.7 15.379a2.2335 2.2335 0 1 1 -4.4669 0 2.2335 2.2335 0 1 1 4.4669 0z" transform="matrix(.94232 0 0 .94768 24.333 -12.038)" sodipodi:cy="15.378851" sodipodi:cx="150.46875"/>
  <path id="path860" sodipodi:rx="2.2334518" sodipodi:ry="2.2334576" style="fill-rule:evenodd;stroke:#000000;stroke-width:.625;fill:#ff0000" sodipodi:type="arc" d="m152.7 15.379a2.2335 2.2335 0 1 1 -4.4669 0 2.2335 2.2335 0 1 1 4.4669 0z" transform="matrix(.94232 0 0 .94768 20.107 -11.535)" sodipodi:cy="15.378851" sodipodi:cx="150.46875"/>
  <path id="path861" inkscape:connector-curvature="0" sodipodi:nodetypes="ccc" style="fill-rule:evenodd;fill:#000000" d="m159.92 15.035c1.56 4.878 6.58 2.961 7.1 0.348 0.52-1.394-4.33-0.348-7.1-0.348z"/>
  <path id="path633" inkscape:connector-curvature="0" sodipodi:nodetypes="ccccssscccc" style="fill-rule:evenodd;stroke:#000000;stroke-width:1.05;fill:#00d700" d="m161.34 177.29c2.95-3.53 11.8-4.94 15.74-1.83 3.93 3.1 5.62 4.23 8.99 4.52 0.98-5.23 6.04-11.02 5.9-12.72-4.35-5.51-4.49-8.62-7.16-10.17-2.15-1.14-4.21-1.37-5.2-5.94-2.66-12.25-19.53-5.51-20.1-2.12-0.65 3.05-0.7 4.95-4.91 8.76-4.22 3.82-6.75 7.07-5.06 11.73 1.68 4.66-0.56 11.3 5.2 11.16 3.93-0.84 6.6-3.39 6.6-3.39z"/>
  <path id="path624" inkscape:connector-curvature="0" sodipodi:nodetypes="csccccsccc" style="fill-rule:evenodd;stroke:#000000;stroke-width:1.05;fill:#00d700" d="m231.45 172.49c-0.42-6.22-3.5-12.05-8.01-13.14-2.96-0.84-3.65-5.23-5.9-8.06-2.24-2.82-14.75-4.24-16.3-0.85-1.54 3.4-1.82 5.09-3.65 6.79-1.83 1.69-2.67 3.81-4.78 10.31-8.99 12.58-7.92 15.66 0 9.33 2.33-1.86 14.62-3.11 16.87-0.57 2.95 3.82 10.11 5.66 13.2 1.84 1.97-1.84 6.04-3.39 8.57-5.65z"/>
  <path id="path625" style="stroke:#000000;stroke-width:1.05;fill:none" inkscape:connector-curvature="0" d="m213.33 163.87c-0.28 2.31-3.28 4.69-5.26 5.58-0.17 0.07-0.34 0.14-0.51 0.22"/>
  <path id="path626" style="stroke:#000000;stroke-width:1.05;fill:none" inkscape:connector-curvature="0" d="m221.48 162.6c0.98 1.97 1.31 2.73 2.91 4.47 1.66 1.81 3.49 3.74 5.56 5.05 0.2 0.12 0.32 0.1 0.55 0.08"/>
  <path id="path627" style="stroke:#000000;stroke-width:1.05;fill:none" inkscape:connector-curvature="0" d="m160.36 157.23c1.07 1.43 4.43 4.61 1.41 5.89-1.22 0.52-2.08 0.88-3.43 0.89"/>
  <path id="path628" style="stroke:#000000;stroke-width:1.05;fill:none" inkscape:connector-curvature="0" d="m165.7 168.25c1.12 2.26 3.22 3.51 5.07 5.09"/>
  <path id="path631" style="stroke:#000000;stroke-width:1.05;fill:none" inkscape:connector-curvature="0" d="m113.43 171.78c1.66 0 6.93-2.94 8.66-3.72 0.01 0-0.23 0.3-0.86 1.07-1.69 2.08-2.2 4.63-3.46 6.92"/>
  <g id="g744" style="stroke:#0000d7" transform="matrix(1.047 0 0 1.053 .039197 -14.511)">
    <g id="g638" style="stroke:#0000d7;stroke-width:7.75;stroke-linecap:square" transform="matrix(.82184 0 0 .78257 7.1228 42.891)">
      <path id="path634" inkscape:connector-curvature="0" sodipodi:nodetypes="cc" style="stroke:#0000d7;stroke-width:7.75;stroke-linecap:square;fill:none" d="m36.471 198.05c5.742-6.33 11.445-6.29 17.93-0.04"/>
      <path id="path637" inkscape:connector-curvature="0" sodipodi:nodetypes="cc" style="stroke:#0000d7;stroke-width:7.75;stroke-linecap:square;fill:none" d="m72.428 197.93c-5.781 6.25-11.562 6.33-18.047 0.08"/>
    </g>
    <g id="g641" style="stroke:#0000d7;stroke-width:7.75;stroke-linecap:square" transform="matrix(.82184 0 0 .78257 36.654 42.812)">
      <path id="path642" inkscape:connector-curvature="0" sodipodi:nodetypes="cc" style="stroke:#0000d7;stroke-width:7.75;stroke-linecap:square;fill:none" d="m36.471 198.05c5.742-6.33 11.445-6.29 17.93-0.04"/>
      <path id="path643" inkscape:connector-curvature="0" sodipodi:nodetypes="cc" style="stroke:#0000d7;stroke-width:7.75;stroke-linecap:square;fill:none" d="m72.428 197.93c-5.781 6.25-11.562 6.33-18.047 0.08"/>
    </g>
    <g id="g644" style="stroke:#0000d7;stroke-width:7.75;stroke-linecap:square" transform="matrix(.82184 0 0 .78257 66.154 42.702)">
      <path id="path645" inkscape:connector-curvature="0" sodipodi:nodetypes="cc" style="stroke:#0000d7;stroke-width:7.75;stroke-linecap:square;fill:none" d="m36.471 198.05c5.742-6.33 11.445-6.29 17.93-0.04"/>
      <path id="path646" inkscape:connector-curvature="0" sodipodi:nodetypes="cc" style="stroke:#0000d7;stroke-width:7.75;stroke-linecap:square;fill:none" d="m72.428 197.93c-5.781 6.25-11.562 6.33-18.047 0.08"/>
    </g>
    <g id="g647" style="stroke:#0000d7;stroke-width:7.75;stroke-linecap:square" transform="matrix(.82184 0 0 .78257 95.653 42.591)">
      <path id="path648" inkscape:connector-curvature="0" sodipodi:nodetypes="cc" style="stroke:#0000d7;stroke-width:7.75;stroke-linecap:square;fill:none" d="m36.471 198.05c5.742-6.33 11.445-6.29 17.93-0.04"/>
      <path id="path649" inkscape:connector-curvature="0" sodipodi:nodetypes="cc" style="stroke:#0000d7;stroke-width:7.75;stroke-linecap:square;fill:none" d="m72.428 197.93c-5.781 6.25-11.562 6.33-18.047 0.08"/>
    </g>
    <g id="g650" style="stroke:#0000d7;stroke-width:7.75;stroke-linecap:square" transform="matrix(.82184 0 0 .78257 125.15 42.481)">
      <path id="path651" inkscape:connector-curvature="0" sodipodi:nodetypes="cc" style="stroke:#0000d7;stroke-width:7.75;stroke-linecap:square;fill:none" d="m36.471 198.05c5.742-6.33 11.445-6.29 17.93-0.04"/>
      <path id="path652" inkscape:connector-curvature="0" sodipodi:nodetypes="cc" style="stroke:#0000d7;stroke-width:7.75;stroke-linecap:square;fill:none" d="m72.428 197.93c-5.781 6.25-11.562 6.33-18.047 0.08"/>
    </g>
    <g id="g653" style="stroke:#0000d7;stroke-width:7.75;stroke-linecap:square" transform="matrix(.82184 0 0 .78257 154.65 42.37)">
      <path id="path654" inkscape:connector-curvature="0" sodipodi:nodetypes="cc" style="stroke:#0000d7;stroke-width:7.75;stroke-linecap:square;fill:none" d="m36.471 198.05c5.742-6.33 11.445-6.29 17.93-0.04"/>
      <path id="path655" inkscape:connector-curvature="0" sodipodi:nodetypes="cc" style="stroke:#0000d7;stroke-width:7.75;stroke-linecap:square;fill:none" d="m72.428 197.93c-5.781 6.25-11.562 6.33-18.047 0.08"/>
    </g>
    <g id="g656" style="stroke:#0000d7;stroke-width:7.75;stroke-linecap:square" transform="matrix(.82184 0 0 .78257 184.15 42.26)">
      <path id="path657" inkscape:connector-curvature="0" sodipodi:nodetypes="cc" style="stroke:#0000d7;stroke-width:7.75;stroke-linecap:square;fill:none" d="m36.471 198.05c5.742-6.33 11.445-6.29 17.93-0.04"/>
      <path id="path658" inkscape:connector-curvature="0" sodipodi:nodetypes="cc" style="stroke:#0000d7;stroke-width:7.75;stroke-linecap:square;fill:none" d="m72.428 197.93c-5.781 6.25-11.562 6.33-18.047 0.08"/>
    </g>
    <g id="g659" style="stroke:#0000d7;stroke-width:7.75;stroke-linecap:square" transform="matrix(.82184 0 0 .78257 213.65 42.149)">
      <path id="path660" inkscape:connector-curvature="0" sodipodi:nodetypes="cc" style="stroke:#0000d7;stroke-width:7.75;stroke-linecap:square;fill:none" d="m36.471 198.05c5.742-6.33 11.445-6.29 17.93-0.04"/>
      <path id="path661" inkscape:connector-curvature="0" sodipodi:nodetypes="cc" style="stroke:#0000d7;stroke-width:7.75;stroke-linecap:square;fill:none" d="m72.428 197.93c-5.781 6.25-11.562 6.33-18.047 0.08"/>
    </g>
    <g id="g662" style="stroke:#0000d7;stroke-width:7.75;stroke-linecap:square" transform="matrix(.82184 0 0 .78257 243.15 42.039)">
      <path id="path663" inkscape:connector-curvature="0" sodipodi:nodetypes="cc" style="stroke:#0000d7;stroke-width:7.75;stroke-linecap:square;fill:none" d="m36.471 198.05c5.742-6.33 11.445-6.29 17.93-0.04"/>
      <path id="path664" inkscape:connector-curvature="0" sodipodi:nodetypes="cc" style="stroke:#0000d7;stroke-width:7.75;stroke-linecap:square;fill:none" d="m72.428 197.93c-5.781 6.25-11.562 6.33-18.047 0.08"/>
    </g>
    <path id="path666" style="stroke:#0000d7;stroke-width:7.75;stroke-linecap:square;fill:none" d="m36.471 198.05c5.742-6.33 11.445-6.29 17.93-0.04" sodipodi:nodetypes="cc" inkscape:connector-curvature="0" transform="matrix(.82184 0 0 .78257 272.65 41.928)"/>
    <path id="path667" inkscape:connector-curvature="0" sodipodi:nodetypes="cc" style="stroke:#0000d7;stroke-width:5.7529;stroke-linecap:square;fill:none" d="m322.1 199.43c-2.1 0.01-4.26-1.2-6.54-3.64"/>
    <g id="g670" style="stroke:#0000d7;stroke-width:7.7466;stroke-linecap:square" transform="matrix(-.82184 0 0 .78257 81.707 42.92)">
      <path id="path671" inkscape:connector-curvature="0" sodipodi:nodetypes="cc" style="stroke:#0000d7;stroke-width:7.7466;stroke-linecap:square;fill:none" d="m36.471 198.05c5.742-6.33 11.445-6.29 17.93-0.04"/>
      <path id="path672" inkscape:connector-curvature="0" sodipodi:nodetypes="cc" style="stroke:#0000d7;stroke-width:7.7466;stroke-linecap:square;fill:none" d="m72.428 197.93c-5.781 6.25-11.562 6.33-18.047 0.08"/>
    </g>
    <path id="path673" inkscape:connector-curvature="0" sodipodi:nodetypes="cc" style="stroke:#0000d7;stroke-width:6.2125;stroke-linecap:square;fill:none" d="m22.234 197.87c-4.719-4.95-9.406-4.92-14.736-0.03"/>
    <path id="path674" inkscape:connector-curvature="0" sodipodi:nodetypes="cc" style="stroke:#0000d7;stroke-width:6.2125;stroke-linecap:square;fill:none" d="m3.0777 200.8c1.9891 0.2 5.7731-4.15 6.3585-4.33"/>
  </g>
  <g id="g779" style="stroke:#0000d7" transform="matrix(1.047 0 0 1.053 .039197 -.72379)">
    <g id="g780" style="stroke:#0000d7;stroke-width:7.75;stroke-linecap:square" transform="matrix(.82184 0 0 .78257 7.1228 42.891)">
      <path id="path781" inkscape:connector-curvature="0" sodipodi:nodetypes="cc" style="stroke:#0000d7;stroke-width:7.75;stroke-linecap:square;fill:none" d="m36.471 198.05c5.742-6.33 11.445-6.29 17.93-0.04"/>
      <path id="path782" inkscape:connector-curvature="0" sodipodi:nodetypes="cc" style="stroke:#0000d7;stroke-width:7.75;stroke-linecap:square;fill:none" d="m72.428 197.93c-5.781 6.25-11.562 6.33-18.047 0.08"/>
    </g>
    <g id="g783" style="stroke:#0000d7;stroke-width:7.75;stroke-linecap:square" transform="matrix(.82184 0 0 .78257 36.654 42.812)">
      <path id="path784" inkscape:connector-curvature="0" sodipodi:nodetypes="cc" style="stroke:#0000d7;stroke-width:7.75;stroke-linecap:square;fill:none" d="m36.471 198.05c5.742-6.33 11.445-6.29 17.93-0.04"/>
      <path id="path785" inkscape:connector-curvature="0" sodipodi:nodetypes="cc" style="stroke:#0000d7;stroke-width:7.75;stroke-linecap:square;fill:none" d="m72.428 197.93c-5.781 6.25-11.562 6.33-18.047 0.08"/>
    </g>
    <g id="g786" style="stroke:#0000d7;stroke-width:7.75;stroke-linecap:square" transform="matrix(.82184 0 0 .78257 66.154 42.702)">
      <path id="path787" inkscape:connector-curvature="0" sodipodi:nodetypes="cc" style="stroke:#0000d7;stroke-width:7.75;stroke-linecap:square;fill:none" d="m36.471 198.05c5.742-6.33 11.445-6.29 17.93-0.04"/>
      <path id="path788" inkscape:connector-curvature="0" sodipodi:nodetypes="cc" style="stroke:#0000d7;stroke-width:7.75;stroke-linecap:square;fill:none" d="m72.428 197.93c-5.781 6.25-11.562 6.33-18.047 0.08"/>
    </g>
    <g id="g789" style="stroke:#0000d7;stroke-width:7.75;stroke-linecap:square" transform="matrix(.82184 0 0 .78257 95.653 42.591)">
      <path id="path790" inkscape:connector-curvature="0" sodipodi:nodetypes="cc" style="stroke:#0000d7;stroke-width:7.75;stroke-linecap:square;fill:none" d="m36.471 198.05c5.742-6.33 11.445-6.29 17.93-0.04"/>
      <path id="path791" inkscape:connector-curvature="0" sodipodi:nodetypes="cc" style="stroke:#0000d7;stroke-width:7.75;stroke-linecap:square;fill:none" d="m72.428 197.93c-5.781 6.25-11.562 6.33-18.047 0.08"/>
    </g>
    <g id="g792" style="stroke:#0000d7;stroke-width:7.75;stroke-linecap:square" transform="matrix(.82184 0 0 .78257 125.15 42.481)">
      <path id="path793" inkscape:connector-curvature="0" sodipodi:nodetypes="cc" style="stroke:#0000d7;stroke-width:7.75;stroke-linecap:square;fill:none" d="m36.471 198.05c5.742-6.33 11.445-6.29 17.93-0.04"/>
      <path id="path794" inkscape:connector-curvature="0" sodipodi:nodetypes="cc" style="stroke:#0000d7;stroke-width:7.75;stroke-linecap:square;fill:none" d="m72.428 197.93c-5.781 6.25-11.562 6.33-18.047 0.08"/>
    </g>
    <g id="g795" style="stroke:#0000d7;stroke-width:7.75;stroke-linecap:square" transform="matrix(.82184 0 0 .78257 154.65 42.37)">
      <path id="path796" inkscape:connector-curvature="0" sodipodi:nodetypes="cc" style="stroke:#0000d7;stroke-width:7.75;stroke-linecap:square;fill:none" d="m36.471 198.05c5.742-6.33 11.445-6.29 17.93-0.04"/>
      <path id="path797" inkscape:connector-curvature="0" sodipodi:nodetypes="cc" style="stroke:#0000d7;stroke-width:7.75;stroke-linecap:square;fill:none" d="m72.428 197.93c-5.781 6.25-11.562 6.33-18.047 0.08"/>
    </g>
    <g id="g798" style="stroke:#0000d7;stroke-width:7.75;stroke-linecap:square" transform="matrix(.82184 0 0 .78257 184.15 42.26)">
      <path id="path799" inkscape:connector-curvature="0" sodipodi:nodetypes="cc" style="stroke:#0000d7;stroke-width:7.75;stroke-linecap:square;fill:none" d="m36.471 198.05c5.742-6.33 11.445-6.29 17.93-0.04"/>
      <path id="path800" inkscape:connector-curvature="0" sodipodi:nodetypes="cc" style="stroke:#0000d7;stroke-width:7.75;stroke-linecap:square;fill:none" d="m72.428 197.93c-5.781 6.25-11.562 6.33-18.047 0.08"/>
    </g>
    <g id="g801" style="stroke:#0000d7;stroke-width:7.75;stroke-linecap:square" transform="matrix(.82184 0 0 .78257 213.65 42.149)">
      <path id="path802" inkscape:connector-curvature="0" sodipodi:nodetypes="cc" style="stroke:#0000d7;stroke-width:7.75;stroke-linecap:square;fill:none" d="m36.471 198.05c5.742-6.33 11.445-6.29 17.93-0.04"/>
      <path id="path803" inkscape:connector-curvature="0" sodipodi:nodetypes="cc" style="stroke:#0000d7;stroke-width:7.75;stroke-linecap:square;fill:none" d="m72.428 197.93c-5.781 6.25-11.562 6.33-18.047 0.08"/>
    </g>
    <g id="g804" style="stroke:#0000d7;stroke-width:7.75;stroke-linecap:square" transform="matrix(.82184 0 0 .78257 243.15 42.039)">
      <path id="path805" inkscape:connector-curvature="0" sodipodi:nodetypes="cc" style="stroke:#0000d7;stroke-width:7.75;stroke-linecap:square;fill:none" d="m36.471 198.05c5.742-6.33 11.445-6.29 17.93-0.04"/>
      <path id="path806" inkscape:connector-curvature="0" sodipodi:nodetypes="cc" style="stroke:#0000d7;stroke-width:7.75;stroke-linecap:square;fill:none" d="m72.428 197.93c-5.781 6.25-11.562 6.33-18.047 0.08"/>
    </g>
    <path id="path807" style="stroke:#0000d7;stroke-width:7.75;stroke-linecap:square;fill:none" d="m36.471 198.05c5.742-6.33 11.445-6.29 17.93-0.04" sodipodi:nodetypes="cc" inkscape:connector-curvature="0" transform="matrix(.82184 0 0 .78257 272.65 41.928)"/>
    <path id="path808" inkscape:connector-curvature="0" sodipodi:nodetypes="cc" style="stroke:#0000d7;stroke-width:5.7529;stroke-linecap:square;fill:none" d="m322.1 199.43c-2.1 0.01-4.26-1.2-6.54-3.64"/>
    <g id="g809" style="stroke:#0000d7;stroke-width:7.7466;stroke-linecap:square" transform="matrix(-.82184 0 0 .78257 81.707 42.92)">
      <path id="path810" inkscape:connector-curvature="0" sodipodi:nodetypes="cc" style="stroke:#0000d7;stroke-width:7.7466;stroke-linecap:square;fill:none" d="m36.471 198.05c5.742-6.33 11.445-6.29 17.93-0.04"/>
      <path id="path811" inkscape:connector-curvature="0" sodipodi:nodetypes="cc" style="stroke:#0000d7;stroke-width:7.7466;stroke-linecap:square;fill:none" d="m72.428 197.93c-5.781 6.25-11.562 6.33-18.047 0.08"/>
    </g>
    <path id="path812" inkscape:connector-curvature="0" sodipodi:nodetypes="cc" style="stroke:#0000d7;stroke-width:6.2125;stroke-linecap:square;fill:none" d="m22.234 197.87c-4.719-4.95-9.406-4.92-14.736-0.03"/>
    <path id="path813" inkscape:connector-curvature="0" sodipodi:nodetypes="cc" style="stroke:#0000d7;stroke-width:6.2125;stroke-linecap:square;fill:none" d="m3.0777 200.8c1.9891 0.2 5.7731-4.15 6.3585-4.33"/>
  </g>
  <g id="g814" style="stroke:#0000d7" transform="matrix(1.047 0 0 1.053 .039197 -28.364)">
    <g id="g815" style="stroke:#0000d7;stroke-width:7.75;stroke-linecap:square" transform="matrix(.82184 0 0 .78257 7.1228 42.891)">
      <path id="path816" inkscape:connector-curvature="0" sodipodi:nodetypes="cc" style="stroke:#0000d7;stroke-width:7.75;stroke-linecap:square;fill:none" d="m36.471 198.05c5.742-6.33 11.445-6.29 17.93-0.04"/>
      <path id="path817" inkscape:connector-curvature="0" sodipodi:nodetypes="cc" style="stroke:#0000d7;stroke-width:7.75;stroke-linecap:square;fill:none" d="m72.428 197.93c-5.781 6.25-11.562 6.33-18.047 0.08"/>
    </g>
    <g id="g818" style="stroke:#0000d7;stroke-width:7.75;stroke-linecap:square" transform="matrix(.82184 0 0 .78257 36.654 42.812)">
      <path id="path819" inkscape:connector-curvature="0" sodipodi:nodetypes="cc" style="stroke:#0000d7;stroke-width:7.75;stroke-linecap:square;fill:none" d="m36.471 198.05c5.742-6.33 11.445-6.29 17.93-0.04"/>
      <path id="path820" inkscape:connector-curvature="0" sodipodi:nodetypes="cc" style="stroke:#0000d7;stroke-width:7.75;stroke-linecap:square;fill:none" d="m72.428 197.93c-5.781 6.25-11.562 6.33-18.047 0.08"/>
    </g>
    <g id="g821" style="stroke:#0000d7;stroke-width:7.75;stroke-linecap:square" transform="matrix(.82184 0 0 .78257 66.154 42.702)">
      <path id="path822" inkscape:connector-curvature="0" sodipodi:nodetypes="cc" style="stroke:#0000d7;stroke-width:7.75;stroke-linecap:square;fill:none" d="m36.471 198.05c5.742-6.33 11.445-6.29 17.93-0.04"/>
      <path id="path823" inkscape:connector-curvature="0" sodipodi:nodetypes="cc" style="stroke:#0000d7;stroke-width:7.75;stroke-linecap:square;fill:none" d="m72.428 197.93c-5.781 6.25-11.562 6.33-18.047 0.08"/>
    </g>
    <g id="g824" style="stroke:#0000d7;stroke-width:7.75;stroke-linecap:square" transform="matrix(.82184 0 0 .78257 95.653 42.591)">
      <path id="path825" inkscape:connector-curvature="0" sodipodi:nodetypes="cc" style="stroke:#0000d7;stroke-width:7.75;stroke-linecap:square;fill:none" d="m36.471 198.05c5.742-6.33 11.445-6.29 17.93-0.04"/>
      <path id="path826" inkscape:connector-curvature="0" sodipodi:nodetypes="cc" style="stroke:#0000d7;stroke-width:7.75;stroke-linecap:square;fill:none" d="m72.428 197.93c-5.781 6.25-11.562 6.33-18.047 0.08"/>
    </g>
    <g id="g827" style="stroke:#0000d7;stroke-width:7.75;stroke-linecap:square" transform="matrix(.82184 0 0 .78257 125.15 42.481)">
      <path id="path828" inkscape:connector-curvature="0" sodipodi:nodetypes="cc" style="stroke:#0000d7;stroke-width:7.75;stroke-linecap:square;fill:none" d="m36.471 198.05c5.742-6.33 11.445-6.29 17.93-0.04"/>
      <path id="path829" inkscape:connector-curvature="0" sodipodi:nodetypes="cc" style="stroke:#0000d7;stroke-width:7.75;stroke-linecap:square;fill:none" d="m72.428 197.93c-5.781 6.25-11.562 6.33-18.047 0.08"/>
    </g>
    <g id="g830" style="stroke:#0000d7;stroke-width:7.75;stroke-linecap:square" transform="matrix(.82184 0 0 .78257 154.65 42.37)">
      <path id="path831" inkscape:connector-curvature="0" sodipodi:nodetypes="cc" style="stroke:#0000d7;stroke-width:7.75;stroke-linecap:square;fill:none" d="m36.471 198.05c5.742-6.33 11.445-6.29 17.93-0.04"/>
      <path id="path832" inkscape:connector-curvature="0" sodipodi:nodetypes="cc" style="stroke:#0000d7;stroke-width:7.75;stroke-linecap:square;fill:none" d="m72.428 197.93c-5.781 6.25-11.562 6.33-18.047 0.08"/>
    </g>
    <g id="g833" style="stroke:#0000d7;stroke-width:7.75;stroke-linecap:square" transform="matrix(.82184 0 0 .78257 184.15 42.26)">
      <path id="path834" inkscape:connector-curvature="0" sodipodi:nodetypes="cc" style="stroke:#0000d7;stroke-width:7.75;stroke-linecap:square;fill:none" d="m36.471 198.05c5.742-6.33 11.445-6.29 17.93-0.04"/>
      <path id="path835" inkscape:connector-curvature="0" sodipodi:nodetypes="cc" style="stroke:#0000d7;stroke-width:7.75;stroke-linecap:square;fill:none" d="m72.428 197.93c-5.781 6.25-11.562 6.33-18.047 0.08"/>
    </g>
    <g id="g836" style="stroke:#0000d7;stroke-width:7.75;stroke-linecap:square" transform="matrix(.82184 0 0 .78257 213.65 42.149)">
      <path id="path837" inkscape:connector-curvature="0" sodipodi:nodetypes="cc" style="stroke:#0000d7;stroke-width:7.75;stroke-linecap:square;fill:none" d="m36.471 198.05c5.742-6.33 11.445-6.29 17.93-0.04"/>
      <path id="path838" inkscape:connector-curvature="0" sodipodi:nodetypes="cc" style="stroke:#0000d7;stroke-width:7.75;stroke-linecap:square;fill:none" d="m72.428 197.93c-5.781 6.25-11.562 6.33-18.047 0.08"/>
    </g>
    <g id="g839" style="stroke:#0000d7;stroke-width:7.75;stroke-linecap:square" transform="matrix(.82184 0 0 .78257 243.15 42.039)">
      <path id="path840" inkscape:connector-curvature="0" sodipodi:nodetypes="cc" style="stroke:#0000d7;stroke-width:7.75;stroke-linecap:square;fill:none" d="m36.471 198.05c5.742-6.33 11.445-6.29 17.93-0.04"/>
      <path id="path841" inkscape:connector-curvature="0" sodipodi:nodetypes="cc" style="stroke:#0000d7;stroke-width:7.75;stroke-linecap:square;fill:none" d="m72.428 197.93c-5.781 6.25-11.562 6.33-18.047 0.08"/>
    </g>
    <path id="path842" style="stroke:#0000d7;stroke-width:7.75;stroke-linecap:square;fill:none" d="m36.471 198.05c5.742-6.33 11.445-6.29 17.93-0.04" sodipodi:nodetypes="cc" inkscape:connector-curvature="0" transform="matrix(.82184 0 0 .78257 272.65 41.928)"/>
    <path id="path843" inkscape:connector-curvature="0" sodipodi:nodetypes="cc" style="stroke:#0000d7;stroke-width:5.7529;stroke-linecap:square;fill:none" d="m322.1 199.43c-2.1 0.01-4.26-1.2-6.54-3.64"/>
    <g id="g844" style="stroke:#0000d7;stroke-width:7.7466;stroke-linecap:square" transform="matrix(-.82184 0 0 .78257 81.707 42.92)">
      <path id="path845" inkscape:connector-curvature="0" sodipodi:nodetypes="cc" style="stroke:#0000d7;stroke-width:7.7466;stroke-linecap:square;fill:none" d="m36.471 198.05c5.742-6.33 11.445-6.29 17.93-0.04"/>
      <path id="path846" inkscape:connector-curvature="0" sodipodi:nodetypes="cc" style="stroke:#0000d7;stroke-width:7.7466;stroke-linecap:square;fill:none" d="m72.428 197.93c-5.781 6.25-11.562 6.33-18.047 0.08"/>
    </g>
    <path id="path847" inkscape:connector-curvature="0" sodipodi:nodetypes="cc" style="stroke:#0000d7;stroke-width:6.2125;stroke-linecap:square;fill:none" d="m22.234 197.87c-4.719-4.95-9.406-4.92-14.736-0.03"/>
    <path id="path848" inkscape:connector-curvature="0" sodipodi:nodetypes="cc" style="stroke:#0000d7;stroke-width:6.2125;stroke-linecap:square;fill:none" d="m3.0777 200.8c1.9891 0.2 5.7731-4.15 6.3585-4.33"/>
  </g>
  <path id="path862" style="stroke:#000000;stroke-width:1.05;fill:none" inkscape:connector-curvature="0" d="m180 47.863c-1.84 0.923-5.57 4.058-4.6 3.307"/>
  <path id="path863" style="stroke:#000000;stroke-width:1.05;fill:none" inkscape:connector-curvature="0" d="m211.41 62.341c0 3.11 0.33-0.241-0.72 4.933"/>
  <path id="path864" style="stroke:#000000;stroke-width:1.05;fill:none" inkscape:connector-curvature="0" d="m202.9 66.948c-1.34 2.699-0.7 0.54-0.66 5.396 0-0.173 0 0.345 0.01 0.518"/>
  <path id="path865" inkscape:connector-curvature="0" sodipodi:nodetypes="cc" style="stroke:#000000;stroke-width:1.05;fill:none" d="m194.47 66.907c-0.04 2.021-0.08 7.548 0.13 8.201"/>
  <path id="path866" inkscape:connector-curvature="0" sodipodi:nodetypes="cc" style="stroke:#000000;stroke-width:1.05;fill:none" d="m187.77 66.948c0 1.087-0.17 5.834-0.17 6.303"/>
  <path id="path867" inkscape:connector-curvature="0" sodipodi:nodetypes="cc" style="stroke:#000000;stroke-width:1.05;fill:none" d="m127.65 61.683c1.3 4.467 0.57 17.968-0.06 21.139"/>
  <path id="path868" inkscape:connector-curvature="0" sodipodi:nodetypes="cc" style="stroke:#000000;stroke-width:1.05;fill:none" d="m136.81 66.948c0.88 2.658 0.16 5.851 0.08 8.64"/>
  <path id="path869" inkscape:connector-curvature="0" sodipodi:nodetypes="cc" style="stroke:#000000;stroke-width:1.05;fill:none" d="m144.01 67.524c0.57 1.811 0.08 4.608 0.08 7.159"/>
  <path id="path870" style="stroke:#000000;stroke-width:1.05;fill:none" inkscape:connector-curvature="0" d="m150.55 67.606v5.418"/>
  <metadata id="metadata154">
    <rdf:RDF>
      <cc:Work>
        <dc:format>image/svg+xml</dc:format>
        <dc:type rdf:resource="http://purl.org/dc/dcmitype/StillImage"/>
        <cc:license rdf:resource="http://creativecommons.org/licenses/publicdomain/"/>
        <dc:publisher>
          <cc:Agent rdf:about="http://openclipart.org/">
            <dc:title>Openclipart</dc:title>
          </cc:Agent>
        </dc:publisher>
      </cc:Work>
      <cc:License rdf:about="http://creativecommons.org/licenses/publicdomain/">
        <cc:permits rdf:resource="http://creativecommons.org/ns#Reproduction"/>
        <cc:permits rdf:resource="http://creativecommons.org/ns#Distribution"/>
        <cc:permits rdf:resource="http://creativecommons.org/ns#DerivativeWorks"/>
      </cc:License>
    </rdf:RDF>
  </metadata>
</svg>
